<svg xmlns="http://www.w3.org/2000/svg" viewBox="0 0 512 512" role="img" aria-label="Squire">
  <defs><linearGradient id="g" x1="70" y1="40" x2="440" y2="470" gradientUnits="userSpaceOnUse"><stop stop-color="#8b5cf6"/><stop offset="1" stop-color="#4f63e8"/></linearGradient></defs>
  <rect width="512" height="512" rx="132" fill="url(#g)"/>
  <path d="M249 129c-37-30-91-4-85 46-42 5-57 57-26 82-27 31-6 83 35 83 7 45 62 59 83 20V154c0-10-2-18-7-25Zm14 0c37-30 91-4 85 46 42 5 57 57 26 82 27 31 6 83-35 83-7 45-62 59-83 20V154c0-10 2-18 7-25Z" fill="none" stroke="#fff" stroke-width="25" stroke-linecap="round" stroke-linejoin="round"/>
  <path d="M169 181h50l37 35m87-35h-50l-37 35M142 262h62l52 39m114-39h-62l-52 39M184 342v-38l42-28m102 66v-38l-42-28" fill="none" stroke="#fff" stroke-width="20" stroke-linecap="round" stroke-linejoin="round"/>
  <g fill="#fff"><circle cx="169" cy="181" r="12"/><circle cx="343" cy="181" r="12"/><circle cx="142" cy="262" r="12"/><circle cx="370" cy="262" r="12"/><circle cx="184" cy="342" r="12"/><circle cx="328" cy="342" r="12"/></g>
</svg>
